<?xml version="1.0" encoding="utf-8"?>
<!-- Generator: Adobe Illustrator 22.1.0, SVG Export Plug-In . SVG Version: 6.00 Build 0)  -->
<svg version="1.1" id="Слой_1" xmlns="http://www.w3.org/2000/svg" xmlns:xlink="http://www.w3.org/1999/xlink" x="0px" y="0px"
	 viewBox="0 0 50 50" style="enable-background:new 0 0 50 50;" xml:space="preserve">
<style type="text/css">
	.st0{fill:#FFFFFF;}
	.st1{fill:#231F20;}
	.st2{fill:#9FD8F4;}
</style>
<g>
	<g>
		<path class="st0" d="M19,39.4l-3.8-1.3L19,39.4z"/>
		<path class="st1" d="M19,40.1c-0.1,0-0.2,0-0.2,0l-3.8-1.3c-0.4-0.1-0.6-0.5-0.5-0.9c0.1-0.4,0.5-0.6,0.9-0.5l3.8,1.3
			c0.4,0.1,0.6,0.5,0.5,0.9C19.5,40,19.3,40.1,19,40.1z"/>
	</g>
	<g>
		<path class="st1" d="M13,39.2c-0.9-0.3-1.4-1.3-1.1-2.2c0.3-0.9,1.3-1.4,2.2-1.1c0.9,0.3,1.4,1.3,1.1,2.2
			C14.9,39.1,13.9,39.5,13,39.2z"/>
	</g>
	<g>
		<path class="st0" d="M30.8,39.4l3.8-1.3L30.8,39.4z"/>
		<path class="st1" d="M30.8,40.1c-0.3,0-0.6-0.2-0.7-0.5c-0.1-0.4,0.1-0.8,0.5-0.9l3.8-1.3c0.4-0.1,0.8,0.1,0.9,0.5
			c0.1,0.4-0.1,0.8-0.5,0.9l-3.8,1.3C31,40.1,30.9,40.1,30.8,40.1z"/>
	</g>
	<g>
		<path class="st1" d="M36.8,39.2c0.9-0.3,1.4-1.3,1.1-2.2c-0.3-0.9-1.3-1.4-2.2-1.1c-0.9,0.3-1.4,1.3-1.1,2.2
			C34.9,39.1,35.9,39.5,36.8,39.2z"/>
	</g>
	<g>
		<circle class="st0" cx="25" cy="22.1" r="9.3"/>
		<path class="st1" d="M25,32.1c-5.5,0-10-4.5-10-10c0-5.5,4.5-10,10-10s10,4.5,10,10C35.1,27.6,30.5,32.1,25,32.1z M25,13.5
			c-4.7,0-8.6,3.9-8.6,8.6c0,4.7,3.9,8.6,8.6,8.6c4.7,0,8.6-3.9,8.6-8.6C33.6,17.3,29.8,13.5,25,13.5z"/>
	</g>
	<g>
		<g>
			<path class="st0" d="M25.7,22.7l-1.6,0c-1.2,0.3-2.1,1.4-2.1,2.7v2.1H28v-2.1C28,24,27,22.9,25.7,22.7z"/>
			<path class="st1" d="M28,28.2h-5.9c-0.4,0-0.7-0.3-0.7-0.7v-2.1c0-1.6,1.1-3,2.6-3.4c0.1,0,0.1,0,0.2,0l1.6,0c0,0,0.1,0,0.2,0
				c1.6,0.3,2.8,1.7,2.8,3.4v2.1C28.7,27.9,28.3,28.2,28,28.2z M22.8,26.7h4.4v-1.4c0-0.9-0.6-1.7-1.6-2l-1.4,0
				c-0.9,0.2-1.5,1-1.5,1.9V26.7z"/>
		</g>
		<g>
			<path class="st0" d="M28.3,19.9c0,1.8-1.5,3.2-3.2,3.2c-1.8,0-3.2-1.5-3.2-3.2c0-1.8,1.5-3.2,3.2-3.2
				C26.8,16.7,28.3,18.1,28.3,19.9z"/>
			<path class="st1" d="M25,23.9c-2.2,0-4-1.8-4-4c0-2.2,1.8-4,4-4c2.2,0,4,1.8,4,4C29,22.1,27.2,23.9,25,23.9z M25,17.4
				c-1.4,0-2.5,1.1-2.5,2.5s1.1,2.5,2.5,2.5s2.5-1.1,2.5-2.5S26.4,17.4,25,17.4z"/>
		</g>
	</g>
	<g>
		<path class="st0" d="M25,38.2v-6.8V38.2z"/>
		<path class="st1" d="M25,39c-0.4,0-0.7-0.3-0.7-0.7v-6.8c0-0.4,0.3-0.7,0.7-0.7c0.4,0,0.7,0.3,0.7,0.7v6.8
			C25.7,38.6,25.4,39,25,39z"/>
	</g>
	<g>
		<path class="st0" d="M10.2,15l5.9,3.4L10.2,15z"/>
		<path class="st1" d="M16.1,19.1c-0.1,0-0.2,0-0.4-0.1l-5.9-3.4c-0.3-0.2-0.5-0.6-0.3-1c0.2-0.3,0.6-0.5,1-0.3l5.9,3.4
			c0.3,0.2,0.5,0.6,0.3,1C16.6,19,16.4,19.1,16.1,19.1z"/>
	</g>
	<g>
		<path class="st0" d="M39.8,15l-5.9,3.4L39.8,15z"/>
		<path class="st1" d="M33.9,19.1c-0.3,0-0.5-0.1-0.6-0.4c-0.2-0.3-0.1-0.8,0.3-1l5.9-3.4c0.3-0.2,0.8-0.1,1,0.3
			c0.2,0.3,0.1,0.8-0.3,1L34.2,19C34.1,19.1,34,19.1,33.9,19.1z"/>
	</g>
	<g>
		<circle class="st2" cx="42.9" cy="13.4" r="6.5"/>
		<path class="st1" d="M42.9,20.7c-4,0-7.3-3.3-7.3-7.3c0-4,3.3-7.3,7.3-7.3s7.3,3.3,7.3,7.3C50.2,17.4,46.9,20.7,42.9,20.7z
			 M42.9,7.6c-3.2,0-5.8,2.6-5.8,5.8s2.6,5.8,5.8,5.8c3.2,0,5.8-2.6,5.8-5.8S46.2,7.6,42.9,7.6z"/>
	</g>
	<g>
		<g>
			<path class="st0" d="M43.5,14.1l-1.3,0c-0.9,0.2-1.6,1.1-1.6,2.1V17h4.6v-0.8C45.3,15.2,44.5,14.3,43.5,14.1z"/>
			<path class="st1" d="M45.3,17.8h-4.6c-0.4,0-0.7-0.3-0.7-0.7v-0.8c0-1.3,0.9-2.5,2.2-2.8c0.1,0,0.1,0,0.2,0l1.3,0
				c0.1,0,0.1,0,0.2,0c1.3,0.3,2.3,1.4,2.3,2.8V17C46,17.4,45.7,17.8,45.3,17.8z M41.4,16.3h3.2v-0.1c0-0.7-0.5-1.2-1.1-1.4l-1.1,0
				C41.8,15,41.4,15.6,41.4,16.3L41.4,16.3z"/>
		</g>
		<g>
			<path class="st0" d="M45.5,11.9c0,1.4-1.1,2.6-2.6,2.6c-1.4,0-2.6-1.1-2.6-2.6c0-1.4,1.1-2.6,2.6-2.6
				C44.4,9.4,45.5,10.5,45.5,11.9z"/>
			<path class="st1" d="M42.9,15.2c-1.8,0-3.3-1.5-3.3-3.3c0-1.8,1.5-3.3,3.3-3.3c1.8,0,3.3,1.5,3.3,3.3
				C46.2,13.8,44.8,15.2,42.9,15.2z M42.9,10.1c-1,0-1.8,0.8-1.8,1.8c0,1,0.8,1.8,1.8,1.8c1,0,1.8-0.8,1.8-1.8
				C44.8,10.9,44,10.1,42.9,10.1z"/>
		</g>
	</g>
	<g>
		<circle class="st2" cx="7.5" cy="13.4" r="6.5"/>
		<path class="st1" d="M7.5,20.7c-4,0-7.3-3.3-7.3-7.3c0-4,3.3-7.3,7.3-7.3c4,0,7.3,3.3,7.3,7.3C14.7,17.4,11.5,20.7,7.5,20.7z
			 M7.5,7.6c-3.2,0-5.8,2.6-5.8,5.8s2.6,5.8,5.8,5.8c3.2,0,5.8-2.6,5.8-5.8S10.7,7.6,7.5,7.6z"/>
	</g>
	<g>
		<g>
			<path class="st0" d="M8,14.1l-1.3,0c-0.9,0.2-1.6,1.1-1.6,2.1V17h4.6v-0.8C9.8,15.2,9,14.3,8,14.1z"/>
			<path class="st1" d="M9.8,17.8H5.2c-0.4,0-0.7-0.3-0.7-0.7v-0.8c0-1.3,0.9-2.5,2.2-2.8c0.1,0,0.1,0,0.2,0l1.3,0
				c0.1,0,0.1,0,0.2,0c1.3,0.3,2.3,1.4,2.3,2.8V17C10.5,17.4,10.2,17.8,9.8,17.8z M5.9,16.3h3.2v-0.1c0-0.7-0.5-1.2-1.1-1.4l-1.1,0
				C6.3,15,5.9,15.6,5.9,16.3L5.9,16.3z"/>
		</g>
		<g>
			<path class="st0" d="M10,11.9c0,1.4-1.1,2.6-2.6,2.6s-2.6-1.1-2.6-2.6c0-1.4,1.1-2.6,2.6-2.6S10,10.5,10,11.9z"/>
			<path class="st1" d="M7.5,15.2c-1.8,0-3.3-1.5-3.3-3.3c0-1.8,1.5-3.3,3.3-3.3c1.8,0,3.3,1.5,3.3,3.3C10.7,13.8,9.3,15.2,7.5,15.2
				z M7.5,10.1c-1,0-1.8,0.8-1.8,1.8c0,1,0.8,1.8,1.8,1.8s1.8-0.8,1.8-1.8C9.3,10.9,8.5,10.1,7.5,10.1z"/>
		</g>
	</g>
	<g>
		<circle class="st2" cx="25" cy="41.8" r="6.5"/>
		<path class="st1" d="M25,49c-4,0-7.3-3.3-7.3-7.3c0-4,3.3-7.3,7.3-7.3s7.3,3.3,7.3,7.3C32.3,45.8,29,49,25,49z M25,36
			c-3.2,0-5.8,2.6-5.8,5.8c0,3.2,2.6,5.8,5.8,5.8s5.8-2.6,5.8-5.8C30.8,38.6,28.2,36,25,36z"/>
	</g>
	<g>
		<g>
			<path class="st0" d="M25.6,42.5l-1.3,0c-0.9,0.2-1.6,1.1-1.6,2.1v0.8h4.6v-0.8C27.3,43.5,26.6,42.7,25.6,42.5z"/>
			<path class="st1" d="M27.3,46.1h-4.6c-0.4,0-0.7-0.3-0.7-0.7v-0.8c0-1.3,0.9-2.5,2.2-2.8c0.1,0,0.1,0,0.2,0l1.3,0
				c0.1,0,0.1,0,0.2,0c1.3,0.3,2.3,1.4,2.3,2.8v0.8C28,45.8,27.7,46.1,27.3,46.1z M23.4,44.7h3.2v-0.1c0-0.7-0.5-1.2-1.1-1.4l-1.1,0
				C23.8,43.4,23.4,44,23.4,44.7L23.4,44.7z"/>
		</g>
		<g>
			<circle class="st0" cx="25" cy="40.3" r="2.6"/>
			<path class="st1" d="M25,43.6c-1.8,0-3.3-1.5-3.3-3.3c0-1.8,1.5-3.3,3.3-3.3c1.8,0,3.3,1.5,3.3,3.3C28.3,42.1,26.8,43.6,25,43.6z
				 M25,38.5c-1,0-1.8,0.8-1.8,1.8c0,1,0.8,1.8,1.8,1.8s1.8-0.8,1.8-1.8C26.8,39.3,26,38.5,25,38.5z"/>
		</g>
	</g>
	<g>
		<path class="st0" d="M7.5,19.9V24V19.9z"/>
		<path class="st1" d="M7.5,24.7c-0.4,0-0.7-0.3-0.7-0.7v-4.1c0-0.4,0.3-0.7,0.7-0.7s0.7,0.3,0.7,0.7V24C8.2,24.4,7.9,24.7,7.5,24.7
			z"/>
	</g>
	<g>
		<path class="st1" d="M9.2,25.7c0,1-0.8,1.7-1.7,1.7s-1.7-0.8-1.7-1.7c0-1,0.8-1.7,1.7-1.7S9.2,24.7,9.2,25.7z"/>
	</g>
	<g>
		<path class="st0" d="M12.1,8.4l3.4-2.2L12.1,8.4z"/>
		<path class="st1" d="M12.1,9.1c-0.2,0-0.5-0.1-0.6-0.3c-0.2-0.3-0.1-0.8,0.2-1l3.4-2.2c0.3-0.2,0.8-0.1,1,0.2
			c0.2,0.3,0.1,0.8-0.2,1L12.5,9C12.4,9.1,12.3,9.1,12.1,9.1z"/>
	</g>
	<g>
		<path class="st1" d="M16,3.9c0.8-0.5,1.9-0.3,2.4,0.5c0.5,0.8,0.3,1.9-0.5,2.4c-0.8,0.5-1.9,0.3-2.4-0.5C15,5.5,15.2,4.4,16,3.9z"
			/>
	</g>
	<g>
		<path class="st0" d="M42.9,19.9V24V19.9z"/>
		<path class="st1" d="M42.9,24.7c-0.4,0-0.7-0.3-0.7-0.7v-4.1c0-0.4,0.3-0.7,0.7-0.7c0.4,0,0.7,0.3,0.7,0.7V24
			C43.7,24.4,43.3,24.7,42.9,24.7z"/>
	</g>
	<g>
		<path class="st1" d="M41.2,25.7c0,1,0.8,1.7,1.7,1.7s1.7-0.8,1.7-1.7c0-1-0.8-1.7-1.7-1.7S41.2,24.7,41.2,25.7z"/>
	</g>
	<g>
		<path class="st0" d="M38.3,8.4l-3.4-2.2L38.3,8.4z"/>
		<path class="st1" d="M38.3,9.1c-0.1,0-0.3,0-0.4-0.1l-3.4-2.2c-0.3-0.2-0.4-0.7-0.2-1c0.2-0.3,0.7-0.4,1-0.2l3.4,2.2
			c0.3,0.2,0.4,0.7,0.2,1C38.8,9,38.5,9.1,38.3,9.1z"/>
	</g>
	<g>
		<path class="st1" d="M34.4,3.9c-0.8-0.5-1.9-0.3-2.4,0.5c-0.5,0.8-0.3,1.9,0.5,2.4c0.8,0.5,1.9,0.3,2.4-0.5
			C35.4,5.5,35.2,4.4,34.4,3.9z"/>
	</g>
</g>
</svg>
