<?xml version="1.0" encoding="utf-8"?>
<!-- Generator: Adobe Illustrator 22.1.0, SVG Export Plug-In . SVG Version: 6.00 Build 0)  -->
<svg version="1.1" id="Слой_1" xmlns="http://www.w3.org/2000/svg" xmlns:xlink="http://www.w3.org/1999/xlink" x="0px" y="0px"
	 viewBox="0 0 50 50" style="enable-background:new 0 0 50 50;" xml:space="preserve">
<style type="text/css">
	.st0{fill:#231F20;}
	.st1{fill:#9FD8F4;}
	.st2{fill:#020203;}
</style>
<g>
	<g>
		<path class="st0" d="M40.3,42.6H0.8c-0.5,0-0.8-0.4-0.8-0.8V14.6c0-0.5,0.4-0.8,0.8-0.8h39.5c0.5,0,0.8,0.4,0.8,0.8v27.2
			C41.1,42.3,40.8,42.6,40.3,42.6z M1.6,41h37.9V15.4H1.6V41z"/>
	</g>
	<g>
		<path class="st0" d="M20.6,33.1c-0.2,0-0.4-0.1-0.5-0.2L0.3,15.2C0,15-0.1,14.6,0.1,14.3c0.1-0.3,0.4-0.5,0.8-0.5h39.5
			c0.3,0,0.6,0.2,0.8,0.5c0.1,0.3,0,0.7-0.2,0.9L21.1,32.9C21,33,20.8,33.1,20.6,33.1z M3,15.4l17.6,15.8l17.6-15.8H3z"/>
	</g>
	<g>
		<path class="st0" d="M0.8,42.6c-0.2,0-0.4-0.1-0.6-0.2c-0.3-0.3-0.3-0.8,0-1.2l14.6-14.1c0.3-0.3,0.8-0.3,1.2,0
			c0.3,0.3,0.3,0.8,0,1.2L1.4,42.4C1.2,42.6,1,42.6,0.8,42.6z"/>
	</g>
	<g>
		<path class="st0" d="M40.3,42.6c-0.2,0-0.4-0.1-0.6-0.2L25.1,28.3c-0.3-0.3-0.3-0.8,0-1.2c0.3-0.3,0.8-0.3,1.2,0l14.6,14.1
			c0.3,0.3,0.3,0.8,0,1.2C40.8,42.6,40.5,42.6,40.3,42.6z"/>
	</g>
	<g>
		<ellipse transform="matrix(0.2306 -0.9731 0.9731 0.2306 17.6709 49.8043)" class="st1" cx="40.3" cy="13.7" rx="8.9" ry="8.9"/>
		<path class="st0" d="M40.3,23.4c-5.3,0-9.7-4.3-9.7-9.7c0-5.3,4.3-9.7,9.7-9.7c5.3,0,9.7,4.3,9.7,9.7C50,19.1,45.7,23.4,40.3,23.4
			z M40.3,5.7c-4.4,0-8,3.6-8,8c0,4.4,3.6,8,8,8s8-3.6,8-8C48.4,9.3,44.8,5.7,40.3,5.7z"/>
	</g>
	<g>
		<g>
			<path class="st2" d="M42,17.8h-2.5v-4.8c0-0.6,0-1.1,0-1.6c-0.2,0.2-0.3,0.4-0.6,0.6l-1,0.8l-1.3-1.5l3.1-2.5H42V17.8z"/>
		</g>
	</g>
</g>
</svg>
