<?xml version="1.0" encoding="utf-8"?>
<!-- Generator: Adobe Illustrator 22.1.0, SVG Export Plug-In . SVG Version: 6.00 Build 0)  -->
<svg version="1.1" id="Слой_1" xmlns="http://www.w3.org/2000/svg" xmlns:xlink="http://www.w3.org/1999/xlink" x="0px" y="0px"
	 viewBox="0 0 50 50" style="enable-background:new 0 0 50 50;" xml:space="preserve">
<style type="text/css">
	.st0{fill:#231F20;}
	.st1{fill:#9FD8F4;}
</style>
<g>
	<g>
		<g>
			<path class="st0" d="M24.6,46.1c-3.3,0-6.7-0.9-9.6-2.5c-0.4-0.2-0.5-0.7-0.3-1.1c0.2-0.4,0.7-0.5,1.1-0.3
				c2.7,1.5,5.7,2.3,8.8,2.3c2.8,0,5.5-0.6,8-1.9c0.4-0.2,0.9,0,1.1,0.4c0.2,0.4,0,0.9-0.4,1.1C30.6,45.4,27.7,46.1,24.6,46.1z"/>
		</g>
		<g>
			<g>
				<polygon class="st0" points="29,42.5 32.6,43.6 31.6,47.2 33.6,46.1 34.6,42.5 31,41.4 				"/>
			</g>
		</g>
	</g>
	<g>
		<g>
			<path class="st0" d="M43.5,27.2c-0.4,0-0.8-0.4-0.8-0.8c0-3.1-0.8-6.2-2.3-8.9c-1.5-2.6-3.6-4.8-6.1-6.4
				c-0.4-0.2-0.5-0.7-0.2-1.1c0.2-0.4,0.7-0.5,1.1-0.2c2.8,1.7,5.1,4.2,6.6,7c1.6,2.9,2.5,6.3,2.5,9.6C44.3,26.9,44,27.2,43.5,27.2z
				"/>
		</g>
		<g>
			<g>
				<polygon class="st0" points="36.1,14.3 35.1,10.7 38.8,9.7 36.8,8.6 33.2,9.6 34.2,13.2 				"/>
			</g>
		</g>
	</g>
	<g>
		<g>
			<path class="st0" d="M5.8,25.4C5.8,25.4,5.8,25.4,5.8,25.4C5.3,25.4,5,25,5,24.5c0.3-3.3,1.5-6.6,3.4-9.3
				c1.9-2.7,4.4-4.9,7.3-6.4c0.4-0.2,0.9,0,1.1,0.3c0.2,0.4,0,0.9-0.3,1.1c-2.7,1.4-5,3.4-6.7,5.9c-1.8,2.5-2.8,5.5-3.1,8.6
				C6.6,25.1,6.2,25.4,5.8,25.4z"/>
		</g>
		<g>
			<g>
				<polygon class="st0" points="8.7,21.6 5.9,24.2 3.3,21.3 3.2,23.6 5.7,26.4 8.6,23.9 				"/>
			</g>
		</g>
	</g>
	<g>
		<g>
			<path class="st1" d="M30.2,6.4c0,3.1-2.5,5.6-5.6,5.6c-3.1,0-5.6-2.5-5.6-5.6c0-3.1,2.5-5.6,5.6-5.6C27.7,0.8,30.2,3.3,30.2,6.4z
				"/>
			<path class="st0" d="M24.6,12.7c-3.5,0-6.3-2.8-6.3-6.3c0-3.5,2.8-6.3,6.3-6.3S31,2.9,31,6.4C31,9.9,28.1,12.7,24.6,12.7z
				 M24.6,1.6c-2.6,0-4.8,2.1-4.8,4.8s2.1,4.8,4.8,4.8s4.8-2.1,4.8-4.8S27.3,1.6,24.6,1.6z"/>
		</g>
		<g>
			<path class="st1" d="M30.3,19.3H19v-1.7c0-3.1,2.5-5.7,5.7-5.7l0,0c3.1,0,5.7,2.5,5.7,5.7V19.3z"/>
			<path class="st0" d="M30.3,20.1H19c-0.4,0-0.8-0.4-0.8-0.8v-1.7c0-3.6,2.9-6.5,6.5-6.5c3.6,0,6.5,2.9,6.5,6.5v1.7
				C31.1,19.8,30.8,20.1,30.3,20.1z M19.7,18.5h9.8v-0.9c0-2.7-2.2-4.9-4.9-4.9s-4.9,2.2-4.9,4.9V18.5z"/>
		</g>
	</g>
	<g>
		<g>
			<path class="st1" d="M49.1,35.8c0,3.1-2.5,5.6-5.6,5.6c-3.1,0-5.6-2.5-5.6-5.6s2.5-5.6,5.6-5.6C46.6,30.3,49.1,32.8,49.1,35.8z"
				/>
			<path class="st0" d="M43.5,42.2c-3.5,0-6.3-2.8-6.3-6.3c0-3.5,2.8-6.3,6.3-6.3c3.5,0,6.3,2.8,6.3,6.3
				C49.9,39.3,47,42.2,43.5,42.2z M43.5,31.1c-2.6,0-4.8,2.1-4.8,4.8s2.1,4.8,4.8,4.8c2.6,0,4.8-2.1,4.8-4.8S46.2,31.1,43.5,31.1z"
				/>
		</g>
		<g>
			<path class="st1" d="M49.2,48.8H37.8v-1.7c0-3.1,2.5-5.7,5.7-5.7l0,0c3.1,0,5.7,2.5,5.7,5.7V48.8z"/>
			<path class="st0" d="M49.2,49.6H37.8c-0.4,0-0.8-0.4-0.8-0.8v-1.7c0-3.6,2.9-6.5,6.5-6.5c3.6,0,6.5,2.9,6.5,6.5v1.7
				C50,49.2,49.6,49.6,49.2,49.6z M38.6,48h9.8v-0.9c0-2.7-2.2-4.9-4.9-4.9c-2.7,0-4.9,2.2-4.9,4.9V48z"/>
		</g>
	</g>
	<g>
		<g>
			<path class="st1" d="M12,35.8c0,3.1-2.5,5.6-5.6,5.6c-3.1,0-5.6-2.5-5.6-5.6s2.5-5.6,5.6-5.6C9.5,30.3,12,32.8,12,35.8z"/>
			<path class="st0" d="M6.5,42.2c-3.5,0-6.3-2.8-6.3-6.3c0-3.5,2.8-6.3,6.3-6.3c3.5,0,6.3,2.8,6.3,6.3C12.8,39.3,10,42.2,6.5,42.2z
				 M6.5,31.1c-2.6,0-4.8,2.1-4.8,4.8s2.1,4.8,4.8,4.8c2.6,0,4.8-2.1,4.8-4.8S9.1,31.1,6.5,31.1z"/>
		</g>
		<g>
			<path class="st1" d="M12.2,48.8H0.8v-1.7c0-3.1,2.5-5.7,5.7-5.7l0,0c3.1,0,5.7,2.5,5.7,5.7V48.8z"/>
			<path class="st0" d="M12.2,49.6H0.8c-0.4,0-0.8-0.4-0.8-0.8v-1.7c0-3.6,2.9-6.5,6.5-6.5c3.6,0,6.5,2.9,6.5,6.5v1.7
				C12.9,49.2,12.6,49.6,12.2,49.6z M1.6,48h9.8v-0.9c0-2.7-2.2-4.9-4.9-4.9c-2.7,0-4.9,2.2-4.9,4.9V48z"/>
		</g>
	</g>
</g>
</svg>
