<?xml version="1.0" encoding="utf-8"?>
<!-- Generator: Adobe Illustrator 22.1.0, SVG Export Plug-In . SVG Version: 6.00 Build 0)  -->
<svg version="1.1" id="Слой_1" xmlns="http://www.w3.org/2000/svg" xmlns:xlink="http://www.w3.org/1999/xlink" x="0px" y="0px"
	 viewBox="0 0 50 50" style="enable-background:new 0 0 50 50;" xml:space="preserve">
<style type="text/css">
	.st0{fill:#FFFFFF;}
	.st1{fill:#465B65;}
	.st2{fill:#9FD8F4;}
</style>
<g id="surface105263">
	<path class="st0" d="M46.2,25c0,11.7-9.5,21.2-21.2,21.2S3.8,36.7,3.8,25S13.3,3.8,25,3.8S46.2,13.3,46.2,25z"/>
	<path class="st1" d="M21.2,46.2v-6.9c0-0.4,0.2-0.6,0.6-0.6s0.6,0.2,0.6,0.6v6.9H25v-8.1c0-0.4,0.2-0.6,0.6-0.6s0.6,0.2,0.6,0.6
		v8.1h2.5v-6.9c0-0.4,0.2-0.6,0.6-0.6S30,39,30,39.4v6.9h2.3c0.2-0.4,0.2-0.8,0.2-1.4V40c0-2.7-2.4-6.5-5.4-6.5H24
		c-2.9,0-5.4,3.9-5.4,6.5v4.9c0,0.5,0.1,1,0.3,1.4H21.2z M45.1,28c0,0-1.6-0.5-3-0.5H42c-1.4,0-3.6,0.4-3.6,0.4
		c-0.1,0-0.1,0-0.1-0.1c0-0.1,0-0.1,0.1-0.1c0.1,0,2.5-0.4,3.9-0.4c1.4,0,3,0.5,3.1,0.5c0.1,0,0.1,0.1,0.1,0.2
		C45.2,27.9,45.2,28,45.1,28z M44.8,29c0,0-1.8-0.5-3.3-0.5c-1.1,0-3.8,0.2-3.9,0.2c-0.1,0-0.1,0-0.1-0.1c0-0.1,0-0.1,0.1-0.1
		c0.1,0,2.7-0.2,3.9-0.2c1.6,0,3.3,0.5,3.3,0.5c0.1,0,0.1,0.1,0.1,0.2C44.9,28.9,44.9,29,44.8,29z M4.8,28c-0.1,0-0.1,0-0.1-0.1
		c0-0.1,0-0.1,0.1-0.2c1-0.3,3-0.6,4.1-0.6c1,0,4.4,0.2,4.5,0.2c0.1,0,0.1,0.1,0.1,0.1c0,0.1-0.1,0.1-0.1,0.1S10,27.3,9,27.3
		C7.6,27.5,5.8,27.7,4.8,28z M5.2,29.9c0,0-0.1,0-0.1-0.1c0-0.1,0-0.1,0-0.2c0.1,0,1.7-1,3.6-1.2c1.6-0.3,5,0.1,5.2,0.1
		c0.1,0,0.1,0.1,0.1,0.1c0,0.1-0.1,0.1-0.1,0.1s-3.5-0.4-5.1-0.1C7,28.9,5.2,29.9,5.2,29.9z"/>
	<path class="st1" d="M12.7,24.4c0-5.5,5.8-10.6,12.9-10.6s12.9,5,12.9,10.6s-4.1,9.4-12.9,9.4S12.7,29.9,12.7,24.4z"/>
	<path class="st1" d="M30.8,15.4c0,0,2.1-2.9,6-2.9c1.5,1.5,0.5,6,0,7.3L30.8,15.4z M20.5,15.4c0,0-2.1-2.9-6-2.9
		c-1.5,1.5-0.5,6,0,7.3L20.5,15.4z M20.1,39.9c0,0-2.9,0-3.5,0c-1.5,0-2.9-0.6-3.5-1.9c-0.8-1.4-1.4-2.9-3.3-4.1
		c-0.4-0.3-0.1-0.5,0.5-0.5c0.6,0.1,1.7,0.2,2.6,1.4c0.9,1.1,1.9,2.5,3.5,2.5s3.4,0,4.4-1.1L20.1,39.9z"/>
	<path class="st2" d="M25,0C11.2,0,0,11.2,0,25s11.2,25,25,25s25-11.2,25-25S38.8,0,25,0z M25,45C14,45,5,36,5,25S14,5,25,5
		s20,9,20,20S36,45,25,45z"/>
</g>
</svg>
