<?xml version="1.0" encoding="utf-8"?>
<!-- Generator: Adobe Illustrator 22.1.0, SVG Export Plug-In . SVG Version: 6.00 Build 0)  -->
<svg version="1.1" id="Слой_1" xmlns="http://www.w3.org/2000/svg" xmlns:xlink="http://www.w3.org/1999/xlink" x="0px" y="0px"
	 viewBox="0 0 50 50" style="enable-background:new 0 0 50 50;" xml:space="preserve">
<style type="text/css">
	.st0{fill:#9FD8F4;}
	.st1{fill:#231F20;}
	.st2{fill:#FFFFFF;}
</style>
<g>
	<g>
		<path class="st0" d="M31.1,32.3H12c-3.4,0-6.2-2.8-6.2-6.2V7c0-3.4,2.8-6.2,6.2-6.2h19.2c3.4,0,6.2,2.8,6.2,6.2v19.2
			C37.3,29.5,34.5,32.3,31.1,32.3z"/>
		<path class="st1" d="M30.3,33.1H12.8c-4.3,0-7.8-3.5-7.8-7.8V7.8C5,3.5,8.5,0,12.8,0h17.6c4.3,0,7.8,3.5,7.8,7.8v17.6
			C38.1,29.6,34.6,33.1,30.3,33.1z M12.8,1.6c-3.4,0-6.1,2.7-6.1,6.1v17.6c0,3.4,2.7,6.1,6.1,6.1h17.6c3.4,0,6.1-2.7,6.1-6.1V7.8
			c0-3.4-2.7-6.1-6.1-6.1H12.8z"/>
	</g>
	<g>
		<path class="st2" d="M23,42.1v-6.5c0-0.9,0.3-1.8,0.8-2.6l1.2-1.7c0.3-0.4,0.4-0.8,0.4-1.3v-8.1c0-1.4,1.1-2.5,2.5-2.5l0,0
			c1.4,0,2.5,1.1,2.5,2.5l0,0c0,0.2,0.2,4.5,0.4,4.5h1.9c1.3,0,2.3,1,2.3,2.3v0.4h1.2c1.3,0,2.4,1.1,2.4,2.4l0,0l0,0
			c1.2,0,2.3,1,2.3,2.3v8.4c0,1.1-0.2,2.1-0.6,3.1l-1.1,2.5c-0.3,0.8-1.1,1.3-2,1.3H26.8c-0.9,0-1.6-0.5-2-1.3l-1.1-2.5
			C23.3,44.3,23,43.2,23,42.1z"/>
		<path class="st1" d="M37,50H26.8c-1.2,0-2.3-0.7-2.8-1.8l-1.1-2.5c-0.5-1.1-0.8-2.4-0.8-3.6v-6.5c0-1.1,0.3-2.1,0.9-3l1.2-1.7
			c0.2-0.2,0.3-0.5,0.3-0.8v-8.1c0-1.8,1.5-3.3,3.3-3.3c1.8,0,3.3,1.5,3.3,3.3c0,0.4,0.1,2.6,0.2,3.7h1.2c1.6,0,2.9,1.2,3.1,2.7h0.4
			c1.5,0,2.8,1.1,3.2,2.5c1.3,0.3,2.3,1.6,2.3,3v8.4c0,1.2-0.2,2.4-0.7,3.5l-1.1,2.5C39.4,49.2,38.3,50,37,50z M27.8,20.2
			c-0.9,0-1.6,0.7-1.6,1.6V30c0,0.6-0.2,1.3-0.6,1.8l-1.2,1.7c-0.4,0.6-0.6,1.3-0.6,2.1v6.5c0,1,0.2,2,0.6,2.9l1.1,2.5
			c0.2,0.5,0.7,0.8,1.2,0.8H37c0.5,0,1-0.3,1.2-0.8l1.1-2.5c0.4-0.9,0.6-1.8,0.6-2.8v-8.4c0-0.8-0.6-1.4-1.4-1.4
			c-0.5,0-0.8-0.4-0.8-0.8c0-0.9-0.7-1.6-1.6-1.6h-1.2c-0.5,0-0.8-0.4-0.8-0.8v-0.4c0-0.8-0.7-1.5-1.5-1.5h-1.9
			c-0.2,0-0.7-0.1-0.9-0.8c0-0.1-0.1-0.3-0.1-0.6c0-0.4-0.1-0.9-0.1-1.5c-0.1-1.1-0.1-2.3-0.1-2.4C29.4,20.9,28.7,20.2,27.8,20.2z"
			/>
	</g>
	<g>
		<g>
			<path class="st2" d="M15.4,20c0,0,0.8-13.2,14.8-16.4C32.2,12.8,15.4,20,15.4,20z"/>
			<path class="st1" d="M15.4,20.9c-0.2,0-0.3-0.1-0.5-0.2c-0.2-0.2-0.4-0.4-0.4-0.7c0-0.1,0.2-3.5,2.3-7.4c1.2-2.3,2.7-4.2,4.6-5.8
				c2.4-2,5.2-3.3,8.5-4.1c0.2-0.1,0.4,0,0.6,0.1C30.8,3,30.9,3.2,31,3.4c0.5,2.3,0,4.7-1.6,7.1c-1.2,1.8-3,3.7-5.4,5.4
				c-4,3-8.1,4.8-8.3,4.9C15.6,20.8,15.5,20.9,15.4,20.9z M29.5,4.6c-2.7,0.7-5,1.9-6.9,3.5c-1.7,1.4-3.1,3.2-4.2,5.2
				c-1.1,2-1.6,3.9-1.8,5.2C20.2,16.7,30,11.2,29.5,4.6z"/>
		</g>
		<g>
			<path class="st1" d="M13.1,27.1c-0.1,0-0.1,0-0.2,0c-0.4-0.1-0.7-0.6-0.6-1c1.8-6.7,4.9-11.2,7.1-13.8c2.5-2.8,4.5-4.1,4.6-4.1
				c0.4-0.2,0.9-0.1,1.2,0.3c0.2,0.4,0.1,0.9-0.3,1.2c0,0-1.9,1.2-4.2,3.8c-2.1,2.4-5,6.7-6.7,13C13.8,26.8,13.5,27.1,13.1,27.1z"/>
		</g>
	</g>
	<g>
		<path class="st2" d="M13.1,28.9h5.7H13.1z"/>
		<path class="st1" d="M18.8,29.7h-5.7c-0.5,0-0.8-0.4-0.8-0.8c0-0.5,0.4-0.8,0.8-0.8h5.7c0.5,0,0.8,0.4,0.8,0.8
			C19.6,29.3,19.2,29.7,18.8,29.7z"/>
	</g>
</g>
</svg>
