<?xml version="1.0" encoding="utf-8"?>
<!-- Generator: Adobe Illustrator 22.1.0, SVG Export Plug-In . SVG Version: 6.00 Build 0)  -->
<svg version="1.1" id="Слой_1" xmlns="http://www.w3.org/2000/svg" xmlns:xlink="http://www.w3.org/1999/xlink" x="0px" y="0px"
	 viewBox="0 0 50 50" style="enable-background:new 0 0 50 50;" xml:space="preserve">
<style type="text/css">
	.st0{fill:#231F20;}
	.st1{fill:#9FD8F4;}
	.st2{fill:#FFFFFF;}
</style>
<g>
	<g>
		<path class="st0" d="M26.3,50H8.5c-3.4,0-6.1-2.7-6.1-6.1V8.3c0-3.4,2.7-6.1,6.1-6.1h17.8c3.4,0,6.1,2.7,6.1,6.1v35.6
			C32.4,47.2,29.7,50,26.3,50z M8.5,3.9c-2.4,0-4.4,2-4.4,4.4v35.6c0,2.4,2,4.4,4.4,4.4h17.8c2.4,0,4.4-2,4.4-4.4V8.3
			c0-2.4-2-4.4-4.4-4.4H8.5z"/>
	</g>
	<g>
		<path class="st0" d="M31.5,41.3H3.3c-0.5,0-0.9-0.4-0.9-0.9V8.3c0-0.5,0.4-0.9,0.9-0.9h28.3c0.5,0,0.9,0.4,0.9,0.9v32.2
			C32.4,40.9,32,41.3,31.5,41.3z M4.1,39.6h26.5V9.1H4.1V39.6z"/>
	</g>
	<g>
		<path class="st0" d="M20.1,45.4h-5.4c-0.5,0-0.9-0.4-0.9-0.9c0-0.5,0.4-0.9,0.9-0.9h5.4c0.5,0,0.9,0.4,0.9,0.9
			C21,45,20.6,45.4,20.1,45.4z"/>
	</g>
	<g>
		<path class="st1" d="M41.3,24.1c5.3-5.3,5.3-14,0-19.3c-5.3-5.3-14-5.3-19.3,0c-4,4-5,10-2.9,15l-1.4,8.6l8.6-1.4l0,0
			C31.3,29.1,37.3,28.1,41.3,24.1z"/>
		<path class="st0" d="M17.8,29.2c-0.2,0-0.5-0.1-0.6-0.3c-0.2-0.2-0.3-0.5-0.2-0.8l1.3-8.4c-1-2.6-1.3-5.4-0.8-8.1
			c0.5-2.9,1.9-5.5,4-7.6c5.7-5.7,14.9-5.7,20.5,0c5.7,5.7,5.7,14.9,0,20.5v0c-2.1,2.1-4.7,3.5-7.6,4c-2.7,0.5-5.5,0.2-8.1-0.8
			l-8.4,1.3C17.9,29.2,17.8,29.2,17.8,29.2z M31.7,1.7c-3.3,0-6.5,1.2-9,3.7c-1.8,1.8-3,4.1-3.5,6.7c-0.5,2.5-0.2,5,0.8,7.3
			c0.1,0.2,0.1,0.3,0.1,0.5l-1.2,7.4l7.4-1.2c0.2,0,0.3,0,0.5,0.1c2.3,1,4.8,1.3,7.3,0.8c2.5-0.5,4.8-1.7,6.7-3.5l0,0
			c5-5,5-13.1,0-18C38.2,2.9,35,1.7,31.7,1.7z"/>
	</g>
	<g>
		<g>
			<rect x="23.4" y="8.9" class="st2" width="16.6" height="11.4"/>
			<path class="st0" d="M40,21.2H23.4c-0.5,0-0.9-0.4-0.9-0.9V8.9C22.6,8.4,23,8,23.4,8H40c0.5,0,0.9,0.4,0.9,0.9v11.4
				C40.9,20.8,40.5,21.2,40,21.2z M24.3,19.4h14.8V9.8H24.3V19.4z"/>
		</g>
		<g>
			<polygon class="st2" points="23.4,8.9 31.7,16.3 40,8.9 			"/>
			<path class="st0" d="M31.7,17.2c-0.2,0-0.4-0.1-0.6-0.2l-8.3-7.4c-0.3-0.2-0.4-0.6-0.2-1C22.8,8.2,23.1,8,23.4,8H40
				c0.4,0,0.7,0.2,0.8,0.6c0.1,0.3,0,0.7-0.2,1L32.3,17C32.2,17.1,31.9,17.2,31.7,17.2z M25.7,9.8l6,5.4l6-5.4H25.7z"/>
		</g>
	</g>
</g>
</svg>
